<svg aria-hidden="true" style="position: absolute; width: 0; height: 0; overflow: hidden;" version="1.1" xmlns="http://www.w3.org/2000/svg" xmlns:xlink="http://www.w3.org/1999/xlink">
<defs>
<symbol id="icon-menu-hamburger" viewBox="0 0 24 24">
<path d="M3 13h18c0.552 0 1-0.448 1-1s-0.448-1-1-1h-18c-0.552 0-1 0.448-1 1s0.448 1 1 1zM3 7h18c0.552 0 1-0.448 1-1s-0.448-1-1-1h-18c-0.552 0-1 0.448-1 1s0.448 1 1 1zM3 19h18c0.552 0 1-0.448 1-1s-0.448-1-1-1h-18c-0.552 0-1 0.448-1 1s0.448 1 1 1z"></path>
</symbol>
<symbol id="icon-scroll" viewBox="0 0 32 32">
<path d="M17.489 18.933c-0.195 0.196-0.427 0.352-0.682 0.459s-0.529 0.161-0.806 0.161c-0.277 0-0.55-0.055-0.806-0.161s-0.487-0.262-0.682-0.459l-9.596-9.617c-0.195-0.196-0.426-0.352-0.682-0.459s-0.529-0.161-0.806-0.161c-0.277 0-0.55 0.055-0.806 0.161s-0.487 0.262-0.682 0.459c-0.39 0.393-0.609 0.924-0.609 1.477s0.219 1.085 0.609 1.477l9.617 9.617c1.179 1.177 2.776 1.838 4.442 1.838s3.263-0.661 4.442-1.838l9.617-9.617c0.387-0.39 0.605-0.917 0.608-1.467 0.002-0.276-0.051-0.549-0.156-0.804s-0.258-0.487-0.452-0.683c-0.195-0.196-0.427-0.352-0.682-0.459s-0.529-0.161-0.806-0.161-0.55 0.055-0.806 0.161c-0.255 0.106-0.487 0.262-0.682 0.459l-9.596 9.617z"></path>
</symbol>
<symbol id="icon-close-btn" viewBox="0 0 32 32">
<path d="M32 3.223l-3.223-3.223-12.777 12.777-12.777-12.777-3.223 3.223 12.777 12.777-12.777 12.777 3.223 3.223 12.777-12.777 12.777 12.777 3.223-3.223-12.777-12.777 12.777-12.777z"></path>
</symbol>
<symbol id="icon-la_utensil-spoon" viewBox="0 0 32 32">
<path d="M15.451 14.106c-0.783-0.95-1.177-2.116-1.177-3.282 0-4.324 5.181-8.642 10.362-8.642 2.86 0 5.181 2.321 5.181 5.182 0 5.182-4.317 10.364-8.646 10.364-1.166 0-2.332-0.394-3.281-1.177l-12.758 12.761c-0.675 0.675-1.77 0.675-2.445 0s-0.675-1.771 0-2.445l12.764-12.761z"></path>
</symbol>
<symbol id="icon-coin" viewBox="0 0 32 32">
<path d="M16 2.667c-7.333 0-13.333 6-13.333 13.333s6 13.333 13.333 13.333c7.333 0 13.333-6 13.333-13.333s-6-13.333-13.333-13.333zM16 26.667c-5.867 0-10.667-4.8-10.667-10.667s4.8-10.667 10.667-10.667c5.867 0 10.667 4.8 10.667 10.667s-4.8 10.667-10.667 10.667z"></path>
<path d="M17.733 14.667h-3.467c-0.667 0-1.2-0.533-1.2-1.2s0.533-1.2 1.2-1.2h4.933c0.8 0 1.333-0.533 1.333-1.333s-0.533-1.333-1.333-1.333h-1.867v-1.2c0-0.8-0.533-1.333-1.333-1.333s-1.333 0.533-1.333 1.333v1.2h-0.4c-2.133 0-3.867 1.733-3.867 3.867s1.733 3.867 3.867 3.867h3.333c0.667 0 1.2 0.533 1.2 1.2s-0.533 1.2-1.2 1.2h-4.933c-0.8 0-1.333 0.533-1.333 1.333s0.533 1.333 1.333 1.333h2v1.2c0 0.8 0.533 1.333 1.333 1.333s1.333-0.533 1.333-1.333v-1.2h0.4c2.133 0 3.867-1.733 3.867-3.867s-1.733-3.867-3.867-3.867z"></path>
</symbol>
<symbol id="icon-fluent-emoji-high-contrast_chocolate-bar" viewBox="0 0 32 32">
<path d="M13.822 2.413l7.527 7.536 0.080-0.080c0.158-0.154 0.369-0.242 0.589-0.244s0.434 0.080 0.595 0.231l0.873 0.873c0.305 0.305 0.315 0.77 0.083 1.094l-0.004 0.007-0.143 0.192 6.16 6.16c0.55 0.55 0.55 1.43 0 1.98l-9.43 9.43c-0.55 0.55-1.43 0.55-1.98 0l-4.447-4.447c-0.074 0.093-0.167 0.169-0.272 0.224s-0.221 0.086-0.34 0.093c-0.119 0.007-0.237-0.012-0.348-0.054s-0.212-0.108-0.296-0.192l-2.6-2.6c-0.154-0.158-0.242-0.369-0.244-0.589s0.080-0.434 0.231-0.595l0.006-0.007 0.077-0.076-7.527-7.527c-0.55-0.55-0.55-1.43 0-1.98l9.43-9.43c0.55-0.55 1.43-0.55 1.98 0v0.001zM20.404 10.893l-1.756-1.755c-0.055-0.057-0.121-0.102-0.194-0.133s-0.151-0.047-0.231-0.047c-0.079 0-0.158 0.016-0.231 0.047s-0.139 0.076-0.194 0.133l-3.58 3.58c-0.057 0.056-0.102 0.123-0.132 0.197s-0.047 0.153-0.047 0.233 0.016 0.159 0.047 0.233c0.031 0.074 0.076 0.141 0.132 0.197l1.749 1.749 0.61-0.61-1.565-1.565 3.21-3.22 1.569 1.574 0.613-0.613zM15.328 15.965l-1.754-1.754c-0.055-0.057-0.121-0.102-0.194-0.133s-0.152-0.047-0.231-0.047c-0.079 0-0.158 0.016-0.231 0.047s-0.139 0.076-0.194 0.133l-3.59 3.59c-0.24 0.23-0.24 0.61 0 0.85l1.752 1.752 0.616-0.616-1.57-1.564 3.22-3.21 1.564 1.563 0.612-0.611zM8.822 8.193l3.58 3.58c0.24 0.24 0.62 0.24 0.85-0.010l3.58-3.58c0.057-0.054 0.102-0.119 0.133-0.192s0.047-0.15 0.047-0.228h0.010c0-0.15-0.060-0.31-0.18-0.43l-3.58-3.58c-0.056-0.057-0.123-0.102-0.197-0.133s-0.153-0.047-0.233-0.047c-0.080 0-0.159 0.016-0.233 0.047s-0.141 0.076-0.197 0.133l-3.58 3.59c-0.24 0.23-0.24 0.61 0 0.85zM3.752 13.263l3.58 3.58c0.24 0.24 0.62 0.24 0.85 0l3.58-3.58c0.058-0.055 0.104-0.122 0.135-0.196s0.046-0.154 0.045-0.234h0.010c0-0.16-0.060-0.31-0.18-0.43l-3.58-3.58c-0.055-0.057-0.121-0.102-0.194-0.133s-0.151-0.047-0.231-0.047c-0.079 0-0.158 0.016-0.231 0.047s-0.139 0.076-0.194 0.133l-3.59 3.59c-0.24 0.23-0.24 0.61 0 0.85zM10.685 22.017l2.362 2.363 9.636-13.040-0.655-0.655-11.343 11.332z"></path>
<path d="M13.822 2.413l7.527 7.536 0.080-0.080c0.158-0.154 0.369-0.242 0.589-0.244s0.434 0.080 0.595 0.231l0.873 0.873c0.305 0.305 0.315 0.77 0.083 1.094l-0.004 0.007-0.143 0.192 6.16 6.16c0.55 0.55 0.55 1.43 0 1.98l-9.43 9.43c-0.55 0.55-1.43 0.55-1.98 0l-4.447-4.447c-0.074 0.093-0.167 0.169-0.272 0.224s-0.221 0.086-0.34 0.093c-0.119 0.007-0.237-0.012-0.348-0.054s-0.212-0.108-0.296-0.192l-2.6-2.6c-0.154-0.158-0.242-0.369-0.244-0.589s0.080-0.434 0.231-0.595l0.006-0.007 0.077-0.076-7.527-7.527c-0.55-0.55-0.55-1.43 0-1.98l9.43-9.43c0.55-0.55 1.43-0.55 1.98 0v0.001zM20.404 10.893l-1.756-1.755c-0.055-0.057-0.121-0.102-0.194-0.133s-0.151-0.047-0.231-0.047c-0.079 0-0.158 0.016-0.231 0.047s-0.139 0.076-0.194 0.133l-3.58 3.58c-0.057 0.056-0.102 0.123-0.132 0.197s-0.047 0.153-0.047 0.233 0.016 0.159 0.047 0.233c0.031 0.074 0.076 0.141 0.132 0.197l1.749 1.749 0.61-0.61-1.565-1.565 3.21-3.22 1.569 1.574 0.613-0.613zM15.328 15.965l-1.754-1.754c-0.055-0.057-0.121-0.102-0.194-0.133s-0.152-0.047-0.231-0.047c-0.079 0-0.158 0.016-0.231 0.047s-0.139 0.076-0.194 0.133l-3.59 3.59c-0.24 0.23-0.24 0.61 0 0.85l1.752 1.752 0.616-0.616-1.57-1.564 3.22-3.21 1.564 1.563 0.612-0.611zM8.822 8.193l3.58 3.58c0.24 0.24 0.62 0.24 0.85-0.010l3.58-3.58c0.057-0.054 0.102-0.119 0.133-0.192s0.047-0.15 0.047-0.228h0.010c0-0.15-0.060-0.31-0.18-0.43l-3.58-3.58c-0.056-0.057-0.123-0.102-0.197-0.133s-0.153-0.047-0.233-0.047c-0.080 0-0.159 0.016-0.233 0.047s-0.141 0.076-0.197 0.133l-3.58 3.59c-0.24 0.23-0.24 0.61 0 0.85zM3.752 13.263l3.58 3.58c0.24 0.24 0.62 0.24 0.85 0l3.58-3.58c0.058-0.055 0.104-0.122 0.135-0.196s0.046-0.154 0.045-0.234h0.010c0-0.16-0.060-0.31-0.18-0.43l-3.58-3.58c-0.055-0.057-0.121-0.102-0.194-0.133s-0.151-0.047-0.231-0.047c-0.079 0-0.158 0.016-0.231 0.047s-0.139 0.076-0.194 0.133l-3.59 3.59c-0.24 0.23-0.24 0.61 0 0.85zM10.685 22.017l2.362 2.363 9.636-13.040-0.655-0.655-11.343 11.332z"></path>
</symbol>
<symbol id="icon-twitter" viewBox="0 0 32 32">
<path d="M21.387 4.959c1.652 0 3.144 0.676 4.195 1.762 1.308-0.253 2.54-0.714 3.648-1.352-0.428 1.301-1.34 2.393-2.525 3.083 1.16-0.136 2.27-0.434 3.301-0.88-0.773 1.117-1.745 2.1-2.868 2.886 0.011 0.239 0.017 0.479 0.017 0.719 0 7.366-5.782 15.863-16.354 15.863-3.245 0-6.268-0.926-8.809-2.507 0.449 0.052 0.906 0.079 1.37 0.079 2.692 0 5.172-0.89 7.139-2.387-2.517-0.043-4.641-1.657-5.369-3.87 0.351 0.066 0.711 0.101 1.082 0.101 0.522 0 1.032-0.067 1.512-0.195-2.629-0.511-4.611-2.764-4.611-5.467v-0.072c0.776 0.418 1.661 0.669 2.605 0.698-1.543-1.001-2.558-2.705-2.558-4.64 0-1.022 0.284-1.981 0.779-2.801 2.834 3.371 7.069 5.591 11.847 5.824-0.098-0.407-0.149-0.837-0.149-1.27 0-3.079 2.574-5.575 5.749-5.575zM30.006 7.572v0zM21.387 2.959c-3.927 0-7.18 2.869-7.681 6.576-3.213-0.646-6.135-2.346-8.235-4.842-0.381-0.454-0.942-0.713-1.531-0.713-0.052 0-0.104 0.002-0.157 0.006-0.643 0.052-1.223 0.41-1.556 0.962-0.698 1.157-1.066 2.482-1.066 3.833 0 0.902 0.162 1.779 0.469 2.601-0.327 0.364-0.515 0.839-0.515 1.341v0.072c0 1.959 0.774 3.777 2.061 5.139-0.074 0.343-0.058 0.702 0.055 1.046 0.444 1.349 1.251 2.512 2.298 3.398-0.703 0.157-1.428 0.235-2.169 0.235-0.392 0-0.773-0.021-1.133-0.066-0.080-0.010-0.159-0.014-0.238-0.014-0.84 0-1.603 0.529-1.885 1.337-0.31 0.885 0.034 1.866 0.83 2.361 2.954 1.838 6.366 2.808 9.866 2.808 11.376 0 18.219-8.905 18.352-17.605 0.931-0.771 1.754-1.662 2.451-2.661 0.254-0.334 0.405-0.751 0.405-1.203 0-0.681-0.34-1.282-0.859-1.644 0.224-0.769-0.032-1.603-0.657-2.111-0.365-0.297-0.813-0.448-1.262-0.448-0.344 0-0.689 0.088-0.999 0.268-0.661 0.381-1.368 0.683-2.113 0.9-1.347-1.014-3.017-1.578-4.732-1.578z"></path>
</symbol>
<symbol id="icon-instagram" viewBox="0 0 32 32">
<path d="M31.867 9.467c-0.133-1.733-0.4-2.8-0.8-3.867-0.267-1.067-0.8-2-1.733-2.933s-1.733-1.467-2.8-1.867c-1.067-0.4-2.133-0.667-3.867-0.8-1.733 0-2.267 0-6.667 0s-4.933 0-6.533 0.133c-1.733 0-2.933 0.267-4 0.667-0.933 0.4-1.867 0.933-2.8 1.867s-1.467 1.867-1.867 2.8c-0.4 1.067-0.667 2.267-0.667 4-0.133 1.6-0.133 2.133-0.133 6.533s0 4.933 0.133 6.533c0.133 1.733 0.4 2.8 0.8 3.867 0.267 1.067 0.8 2 1.733 2.933s1.733 1.467 2.8 1.867c1.067 0.4 2.133 0.667 3.867 0.8 1.733 0 2.267 0 6.667 0s4.933 0 6.533-0.133c1.733-0.133 2.8-0.4 3.867-0.8s2-0.933 2.8-1.867 1.467-1.733 1.867-2.8c0.4-1.067 0.667-2.133 0.8-3.867 0.133-1.6 0.133-2.133 0.133-6.533s0-4.933-0.133-6.533zM29.067 22.4c-0.133 1.6-0.267 2.4-0.533 2.933-0.267 0.8-0.667 1.333-1.2 1.867s-1.067 0.933-1.867 1.2c-0.533 0.267-1.467 0.533-2.933 0.533-1.733 0.133-2.133 0.133-6.4 0.133s-4.8 0-6.4-0.133c-1.6-0.133-2.4-0.267-2.933-0.533-0.8-0.267-1.333-0.667-1.867-1.2s-0.933-1.067-1.2-1.867c-0.267-0.533-0.533-1.467-0.533-2.933-0.133-1.733-0.133-2.133-0.133-6.4s0-4.8 0.133-6.4c-0.133-1.6 0.133-2.533 0.267-3.067 0.267-0.8 0.667-1.333 1.2-1.867s1.067-0.933 1.867-1.2c0.533-0.133 1.467-0.4 3.067-0.533 1.6 0 2.133 0 6.4 0s4.8 0 6.4 0.133c1.6 0.133 2.4 0.267 2.933 0.533 0.8 0.267 1.333 0.667 1.867 1.2s0.933 1.067 1.2 1.867c0.267 0.533 0.533 1.467 0.533 2.933 0.133 1.733 0.133 2.133 0.133 6.4s0 4.8 0 6.4z"></path>
<path d="M16 8c-4.4 0-8 3.6-8 8s3.6 8 8 8 8-3.6 8-8-3.6-8-8-8zM16 21.2c-2.933 0-5.2-2.267-5.2-5.2s2.267-5.2 5.2-5.2 5.2 2.267 5.2 5.2-2.267 5.2-5.2 5.2z"></path>
<path d="M26.667 8c0 1.105-0.895 2-2 2s-2-0.895-2-2c0-1.105 0.895-2 2-2s2 0.895 2 2z"></path>
</symbol>
<symbol id="icon-chocolate" viewBox="0 0 32 32">
<path fill="#fcf1e0" style="fill: var(--color1, #fcf1e0)" d="M3.944 20.076l10.777-17.424 0.64-0.674 8.236 5.491 0.056 3.314 2.010 3.28-8.88 14.077-12.839-8.063z"></path>
<path fill="none" stroke="#fd9222" style="stroke: var(--color2, #fd9222)" stroke-linejoin="round" stroke-linecap="round" stroke-miterlimit="4" stroke-width="2.6667" d="M21.635 23.88l-14.185-8.864M11.361 8.599l14.185 8.864M10.63 25.864l11.736-19.25M27.176 14.789c-3.040-1.899-4.234-3.384-2.278-6.592l-9.626-6.015-11.736 19.25 14.186 8.864 9.454-15.507z"></path>
</symbol>
<symbol id="icon-mastercard" viewBox="0 0 51 32">
<path fill="#ed0006" style="fill: var(--color1, #ed0006)" d="M25.6 26.935c-2.556 2.194-5.873 3.518-9.496 3.518-8.086 0-14.641-6.593-14.641-14.726s6.555-14.726 14.641-14.726c3.624 0 6.94 1.324 9.496 3.518 2.557-2.194 5.873-3.518 9.497-3.518 8.086 0 14.64 6.593 14.64 14.726s-6.555 14.726-14.64 14.726c-3.624 0-6.94-1.324-9.497-3.518z"></path>
<path fill="#f9a000" style="fill: var(--color2, #f9a000)" d="M25.6 26.935c3.148-2.701 5.144-6.72 5.144-11.209s-1.996-8.507-5.144-11.208c2.556-2.194 5.873-3.518 9.497-3.518 8.086 0 14.64 6.593 14.64 14.726s-6.555 14.726-14.64 14.726c-3.624 0-6.94-1.324-9.497-3.518z"></path>
<path fill="#ff5e00" style="fill: var(--color3, #ff5e00)" d="M25.6 26.935c3.148-2.701 5.144-6.72 5.144-11.208s-1.996-8.507-5.144-11.208c-3.148 2.701-5.144 6.72-5.144 11.208s1.996 8.507 5.144 11.208z"></path>
</symbol>
<symbol id="icon-ua" viewBox="0 0 41 32">
<path fill="#ffd700" style="fill: var(--color4, #ffd700)" d="M40.745 1.355h-40.434v30.090h40.434v-30.090z"></path>
<path fill="#0057b7" style="fill: var(--color5, #0057b7)" d="M0.311 1.355h40.434v15.045h-40.434v-15.045z"></path>
</symbol>
</defs>
</svg>
