<svg aria-hidden="true" style="position: absolute; width: 0; height: 0; overflow: hidden;" version="1.1" xmlns="http://www.w3.org/2000/svg" xmlns:xlink="http://www.w3.org/1999/xlink">
<defs>
<symbol id="icon-menu-hamburger" viewBox="0 0 32 32">
            <path d="M6.4 11.733v-2.133h19.2v2.133h-19.2zM6.4 17.067h19.2v-2.133h-19.2v2.133zM6.4 22.4h19.2v-2.133h-19.2v2.133z"></path>
        </symbol>
<symbol id="icon-vector" viewBox="0 0 32 32">
<path d="M17.489 18.933c-0.195 0.196-0.427 0.352-0.682 0.459s-0.529 0.161-0.806 0.161c-0.277 0-0.55-0.055-0.806-0.161s-0.487-0.262-0.682-0.459l-9.596-9.617c-0.195-0.196-0.426-0.352-0.682-0.459s-0.529-0.161-0.806-0.161c-0.277 0-0.55 0.055-0.806 0.161s-0.487 0.262-0.682 0.459c-0.39 0.393-0.609 0.924-0.609 1.477s0.219 1.085 0.609 1.477l9.617 9.617c1.179 1.177 2.776 1.838 4.442 1.838s3.263-0.661 4.442-1.838l9.617-9.617c0.387-0.39 0.605-0.917 0.608-1.467 0.002-0.276-0.051-0.549-0.156-0.804s-0.258-0.487-0.452-0.683c-0.195-0.196-0.427-0.352-0.682-0.459s-0.529-0.161-0.806-0.161-0.55 0.055-0.806 0.161c-0.255 0.106-0.487 0.262-0.682 0.459l-9.596 9.617z"></path>
</symbol>
<symbol id="icon-x" viewBox="0 0 32 32">
<path stroke-linejoin="round" stroke-linecap="round" stroke-miterlimit="4" stroke-width="2.9091" d="M24 8l-16 16"></path>
<path stroke-linejoin="round" stroke-linecap="round" stroke-miterlimit="4" stroke-width="2.9091" d="M8 8l16 16"></path>
</symbol>
<symbol id="icon-la_utensil-spoon" viewBox="0 0 32 32">
<path d="M15.451 14.106c-0.783-0.95-1.177-2.116-1.177-3.282 0-4.324 5.181-8.642 10.362-8.642 2.86 0 5.181 2.321 5.181 5.182 0 5.182-4.317 10.364-8.646 10.364-1.166 0-2.332-0.394-3.281-1.177l-12.758 12.761c-0.675 0.675-1.77 0.675-2.445 0s-0.675-1.771 0-2.445l12.764-12.761z"></path>
</symbol>
<symbol id="icon-coin" viewBox="0 0 32 32">
<path d="M16 2.667c-7.333 0-13.333 6-13.333 13.333s6 13.333 13.333 13.333c7.333 0 13.333-6 13.333-13.333s-6-13.333-13.333-13.333zM16 26.667c-5.867 0-10.667-4.8-10.667-10.667s4.8-10.667 10.667-10.667c5.867 0 10.667 4.8 10.667 10.667s-4.8 10.667-10.667 10.667z"></path>
<path d="M17.733 14.667h-3.467c-0.667 0-1.2-0.533-1.2-1.2s0.533-1.2 1.2-1.2h4.933c0.8 0 1.333-0.533 1.333-1.333s-0.533-1.333-1.333-1.333h-1.867v-1.2c0-0.8-0.533-1.333-1.333-1.333s-1.333 0.533-1.333 1.333v1.2h-0.4c-2.133 0-3.867 1.733-3.867 3.867s1.733 3.867 3.867 3.867h3.333c0.667 0 1.2 0.533 1.2 1.2s-0.533 1.2-1.2 1.2h-4.933c-0.8 0-1.333 0.533-1.333 1.333s0.533 1.333 1.333 1.333h2v1.2c0 0.8 0.533 1.333 1.333 1.333s1.333-0.533 1.333-1.333v-1.2h0.4c2.133 0 3.867-1.733 3.867-3.867s-1.733-3.867-3.867-3.867z"></path>
</symbol>
<symbol id="icon-fluent-emoji-high-contrast_chocolate-bar" viewBox="0 0 32 32">
<path d="M13.822 2.413l7.527 7.536 0.080-0.080c0.158-0.154 0.369-0.242 0.589-0.244s0.434 0.080 0.595 0.231l0.873 0.873c0.305 0.305 0.315 0.77 0.083 1.094l-0.004 0.007-0.143 0.192 6.16 6.16c0.55 0.55 0.55 1.43 0 1.98l-9.43 9.43c-0.55 0.55-1.43 0.55-1.98 0l-4.447-4.447c-0.074 0.093-0.167 0.169-0.272 0.224s-0.221 0.086-0.34 0.093c-0.119 0.007-0.237-0.012-0.348-0.054s-0.212-0.108-0.296-0.192l-2.6-2.6c-0.154-0.158-0.242-0.369-0.244-0.589s0.080-0.434 0.231-0.595l0.006-0.007 0.077-0.076-7.527-7.527c-0.55-0.55-0.55-1.43 0-1.98l9.43-9.43c0.55-0.55 1.43-0.55 1.98 0v0.001zM20.404 10.893l-1.756-1.755c-0.055-0.057-0.121-0.102-0.194-0.133s-0.151-0.047-0.231-0.047c-0.079 0-0.158 0.016-0.231 0.047s-0.139 0.076-0.194 0.133l-3.58 3.58c-0.057 0.056-0.102 0.123-0.132 0.197s-0.047 0.153-0.047 0.233 0.016 0.159 0.047 0.233c0.031 0.074 0.076 0.141 0.132 0.197l1.749 1.749 0.61-0.61-1.565-1.565 3.21-3.22 1.569 1.574 0.613-0.613zM15.328 15.965l-1.754-1.754c-0.055-0.057-0.121-0.102-0.194-0.133s-0.152-0.047-0.231-0.047c-0.079 0-0.158 0.016-0.231 0.047s-0.139 0.076-0.194 0.133l-3.59 3.59c-0.24 0.23-0.24 0.61 0 0.85l1.752 1.752 0.616-0.616-1.57-1.564 3.22-3.21 1.564 1.563 0.612-0.611zM8.822 8.193l3.58 3.58c0.24 0.24 0.62 0.24 0.85-0.010l3.58-3.58c0.057-0.054 0.102-0.119 0.133-0.192s0.047-0.15 0.047-0.228h0.010c0-0.15-0.060-0.31-0.18-0.43l-3.58-3.58c-0.056-0.057-0.123-0.102-0.197-0.133s-0.153-0.047-0.233-0.047c-0.080 0-0.159 0.016-0.233 0.047s-0.141 0.076-0.197 0.133l-3.58 3.59c-0.24 0.23-0.24 0.61 0 0.85zM3.752 13.263l3.58 3.58c0.24 0.24 0.62 0.24 0.85 0l3.58-3.58c0.058-0.055 0.104-0.122 0.135-0.196s0.046-0.154 0.045-0.234h0.010c0-0.16-0.060-0.31-0.18-0.43l-3.58-3.58c-0.055-0.057-0.121-0.102-0.194-0.133s-0.151-0.047-0.231-0.047c-0.079 0-0.158 0.016-0.231 0.047s-0.139 0.076-0.194 0.133l-3.59 3.59c-0.24 0.23-0.24 0.61 0 0.85zM10.685 22.017l2.362 2.363 9.636-13.040-0.655-0.655-11.343 11.332z"></path>
<path d="M13.822 2.413l7.527 7.536 0.080-0.080c0.158-0.154 0.369-0.242 0.589-0.244s0.434 0.080 0.595 0.231l0.873 0.873c0.305 0.305 0.315 0.77 0.083 1.094l-0.004 0.007-0.143 0.192 6.16 6.16c0.55 0.55 0.55 1.43 0 1.98l-9.43 9.43c-0.55 0.55-1.43 0.55-1.98 0l-4.447-4.447c-0.074 0.093-0.167 0.169-0.272 0.224s-0.221 0.086-0.34 0.093c-0.119 0.007-0.237-0.012-0.348-0.054s-0.212-0.108-0.296-0.192l-2.6-2.6c-0.154-0.158-0.242-0.369-0.244-0.589s0.080-0.434 0.231-0.595l0.006-0.007 0.077-0.076-7.527-7.527c-0.55-0.55-0.55-1.43 0-1.98l9.43-9.43c0.55-0.55 1.43-0.55 1.98 0v0.001zM20.404 10.893l-1.756-1.755c-0.055-0.057-0.121-0.102-0.194-0.133s-0.151-0.047-0.231-0.047c-0.079 0-0.158 0.016-0.231 0.047s-0.139 0.076-0.194 0.133l-3.58 3.58c-0.057 0.056-0.102 0.123-0.132 0.197s-0.047 0.153-0.047 0.233 0.016 0.159 0.047 0.233c0.031 0.074 0.076 0.141 0.132 0.197l1.749 1.749 0.61-0.61-1.565-1.565 3.21-3.22 1.569 1.574 0.613-0.613zM15.328 15.965l-1.754-1.754c-0.055-0.057-0.121-0.102-0.194-0.133s-0.152-0.047-0.231-0.047c-0.079 0-0.158 0.016-0.231 0.047s-0.139 0.076-0.194 0.133l-3.59 3.59c-0.24 0.23-0.24 0.61 0 0.85l1.752 1.752 0.616-0.616-1.57-1.564 3.22-3.21 1.564 1.563 0.612-0.611zM8.822 8.193l3.58 3.58c0.24 0.24 0.62 0.24 0.85-0.010l3.58-3.58c0.057-0.054 0.102-0.119 0.133-0.192s0.047-0.15 0.047-0.228h0.010c0-0.15-0.060-0.31-0.18-0.43l-3.58-3.58c-0.056-0.057-0.123-0.102-0.197-0.133s-0.153-0.047-0.233-0.047c-0.080 0-0.159 0.016-0.233 0.047s-0.141 0.076-0.197 0.133l-3.58 3.59c-0.24 0.23-0.24 0.61 0 0.85zM3.752 13.263l3.58 3.58c0.24 0.24 0.62 0.24 0.85 0l3.58-3.58c0.058-0.055 0.104-0.122 0.135-0.196s0.046-0.154 0.045-0.234h0.010c0-0.16-0.060-0.31-0.18-0.43l-3.58-3.58c-0.055-0.057-0.121-0.102-0.194-0.133s-0.151-0.047-0.231-0.047c-0.079 0-0.158 0.016-0.231 0.047s-0.139 0.076-0.194 0.133l-3.59 3.59c-0.24 0.23-0.24 0.61 0 0.85zM10.685 22.017l2.362 2.363 9.636-13.040-0.655-0.655-11.343 11.332z"></path>
</symbol>
<symbol id="icon-instagram-line" viewBox="0 0 32 32">
<path d="M16 12c-2.209 0-4 1.791-4 4s1.791 4 4 4v0c2.209 0 4-1.791 4-4s-1.791-4-4-4v0zM16 9.333c3.682 0 6.667 2.985 6.667 6.667s-2.985 6.667-6.667 6.667v0c-3.682 0-6.667-2.985-6.667-6.667s2.985-6.667 6.667-6.667v0zM24.667 9c0 0.92-0.746 1.667-1.667 1.667s-1.667-0.746-1.667-1.667v0c0-0.92 0.746-1.667 1.667-1.667s1.667 0.746 1.667 1.667v0zM16 5.333c-3.299 0-3.837 0.009-5.372 0.077-1.045 0.049-1.747 0.189-2.397 0.443-0.544 0.2-1.037 0.52-1.44 0.937-0.407 0.394-0.727 0.875-0.93 1.413l-0.009 0.027c-0.253 0.653-0.393 1.353-0.441 2.397-0.069 1.472-0.077 1.987-0.077 5.372 0 3.299 0.009 3.837 0.077 5.372 0.049 1.044 0.189 1.747 0.441 2.396 0.227 0.58 0.493 0.997 0.936 1.44 0.449 0.448 0.867 0.716 1.44 0.937 0.659 0.255 1.36 0.396 2.4 0.444 1.472 0.069 1.987 0.077 5.372 0.077 3.299 0 3.837-0.009 5.372-0.077 1.043-0.049 1.745-0.189 2.396-0.441 0.564-0.212 1.045-0.531 1.439-0.935l0.001-0.001c0.449-0.449 0.717-0.867 0.939-1.44 0.253-0.657 0.395-1.36 0.443-2.4 0.069-1.472 0.077-1.987 0.077-5.372 0-3.299-0.009-3.837-0.077-5.372-0.049-1.043-0.189-1.747-0.443-2.397-0.212-0.565-0.531-1.046-0.936-1.439l-0.001-0.001c-0.394-0.407-0.875-0.727-1.413-0.93l-0.026-0.009c-0.653-0.253-1.355-0.393-2.397-0.441-1.472-0.069-1.987-0.077-5.372-0.077zM16 2.667c3.623 0 4.075 0.013 5.496 0.080 1.42 0.067 2.387 0.289 3.237 0.62 0.88 0.339 1.621 0.797 2.363 1.537 0.679 0.667 1.203 1.473 1.537 2.363 0.329 0.849 0.553 1.817 0.62 3.237 0.063 1.421 0.080 1.873 0.080 5.496s-0.013 4.075-0.080 5.496c-0.067 1.42-0.291 2.387-0.62 3.237-0.352 0.925-0.876 1.713-1.536 2.362l-0.001 0.001c-0.667 0.677-1.473 1.203-2.363 1.537-0.849 0.329-1.817 0.553-3.237 0.62-1.421 0.063-1.873 0.080-5.496 0.080s-4.075-0.013-5.496-0.080c-1.42-0.067-2.387-0.291-3.237-0.62-0.925-0.353-1.713-0.876-2.362-1.536l-0.001-0.001c-0.661-0.65-1.184-1.438-1.522-2.318l-0.015-0.045c-0.331-0.849-0.553-1.817-0.62-3.237-0.063-1.421-0.080-1.873-0.080-5.496s0.013-4.075 0.080-5.496c0.067-1.421 0.289-2.387 0.62-3.237 0.352-0.925 0.875-1.713 1.536-2.362l0.001-0.001c0.65-0.661 1.438-1.184 2.318-1.522l0.045-0.015c0.851-0.331 1.816-0.553 3.237-0.62 1.421-0.063 1.873-0.080 5.496-0.080z"></path>
</symbol>
<symbol id="icon-twitter-line" viewBox="0 0 32 32">
<path d="M20.4 7.4c-0 0-0 0-0.001 0-2.111 0-3.826 1.691-3.866 3.792l-0 0.004-0.037 2.1c-0.008 0.435-0.362 0.785-0.799 0.785-0.038 0-0.076-0.003-0.112-0.008l0.004 0.001-2.081-0.283c-2.739-0.373-5.363-1.635-7.88-3.732-0.797 4.413 0.76 7.471 4.511 9.829l2.329 1.464c0.226 0.144 0.374 0.393 0.374 0.677 0 0.265-0.129 0.499-0.327 0.645l-0.002 0.002-2.123 1.551c1.263 0.079 2.461 0.023 3.456-0.175 6.291-1.256 10.473-5.989 10.473-13.797 0-0.637-1.349-2.855-3.92-2.855zM13.867 11.147c0.066-3.557 2.966-6.415 6.532-6.415 1.818 0 3.463 0.743 4.647 1.941l0.001 0.001c0.948-0.007 1.755 0.233 3.559-0.86-0.447 2.187-0.667 3.136-1.619 4.441 0 10.189-6.263 15.144-12.617 16.412-4.357 0.869-10.693-0.559-12.509-2.455 0.925-0.072 4.685-0.476 6.859-2.067-1.839-1.212-9.157-5.519-4.348-17.097 2.257 2.636 4.547 4.431 6.867 5.383 1.544 0.633 1.923 0.62 2.631 0.717l-0.001-0.001z"></path>
</symbol>
<symbol id="icon-close-btn" viewBox="0 0 32 32">
            <path d="M32 3.223l-3.223-3.223-12.777 12.777-12.777-12.777-3.223 3.223 12.777 12.777-12.777 12.777 3.223 3.223 12.777-12.777 12.777 12.777 3.223-3.223-12.777-12.777 12.777-12.777z"></path>
        </symbol>

<symbol id="icon-chocolate" viewBox="0 0 32 32">
<path fill="#fcf1e0" style="fill: var(--color1, #fcf1e0)" d="M3.944 20.076l10.777-17.424 0.64-0.674 8.236 5.491 0.056 3.314 2.010 3.28-8.88 14.077-12.839-8.063z"></path>
<path fill="none" stroke="#fd9222" style="stroke: var(--color2, #fd9222)" stroke-linejoin="round" stroke-linecap="round" stroke-miterlimit="4" stroke-width="2.6667" d="M21.635 23.88l-14.185-8.864M11.361 8.599l14.185 8.864M10.63 25.864l11.736-19.25M27.176 14.789c-3.040-1.899-4.234-3.384-2.278-6.592l-9.626-6.015-11.736 19.25 14.186 8.864 9.454-15.507z"></path>
</symbol>
</defs>
</svg>
